<svg xmlns="http://www.w3.org/2000/svg" width="1024" height="1024" viewBox="0 0 1024 1024" xml:space="preserve"><path style="stroke:#4d23c7;stroke-width:0;stroke-dasharray:none;stroke-linecap:butt;stroke-dashoffset:0;stroke-linejoin:miter;stroke-miterlimit:4;fill:#000;fill-rule:nonzero;opacity:1" vector-effect="non-scaling-stroke" transform="translate(1.61 1.61)" d="M0 0h1024v1024H0z"/><path style="stroke:none;stroke-width:1;stroke-dasharray:none;stroke-linecap:butt;stroke-dashoffset:0;stroke-linejoin:miter;stroke-miterlimit:4;fill:#b3b5b3;fill-rule:nonzero;opacity:1" vector-effect="non-scaling-stroke" transform="matrix(3.99 0 0 3.99 352.4 514.01)" d="M74 27.9c-.2-3.4-1.9-31.6-37-27.5-12.9 1.9-21.6 11.1-22.8 24-.1 1-.2 2.3-.2 3.6 0 1.1-.1 1.7-.3 2.2-.2.5-7.3 14.5-7.3 14.5-.2.3-.6.9-.4 1.8.2.9.8 1.7 2 2.3.5.3 1 .5 1.5.7 1 .4 1.9.8 2.5 1.7.8 1.1.8 2.3.8 3.7 0 .4-.2 4.8-.2 4.8-.2 2.6-.3 5.3 1 7.2 1.3 1.9 3.7 2.1 6 2.1h6.5c2.7 0 3.4 1.7 3.5 3.3v7c0 .4.3.7.7.7h30.9c.4 0 .7-.3.7-.7V59.2c0-.5.2-1 .7-1.5C74.9 45 74.1 31.3 74 27.9z"/><path style="stroke:none;stroke-width:1;stroke-dasharray:none;stroke-linecap:butt;stroke-dashoffset:0;stroke-linejoin:miter;stroke-miterlimit:4;fill:#fff;fill-rule:nonzero;opacity:1" vector-effect="non-scaling-stroke" transform="matrix(3.99 0 0 3.99 352.4 514.01)" d="M44.2 9.3c-10.6 0-19.1 8.6-19.1 19.1 0 10.5 8.6 19.1 19.1 19.1 10.5 0 19.1-8.6 19.1-19.1 0-10.6-8.6-19.1-19.1-19.1z"/><path style="stroke:none;stroke-width:1;stroke-dasharray:none;stroke-linecap:butt;stroke-dashoffset:0;stroke-linejoin:miter;stroke-miterlimit:4;fill:#b3b5b3;fill-rule:nonzero;opacity:1" vector-effect="non-scaling-stroke" transform="matrix(3.99 0 0 3.99 352.4 514.01)" d="M57.1 24.9h-3l-.5-1.3 2-2.3c.3-.3.2-.7-.1-1l-4-3.6c-.1-.1-.3-.2-.5-.2s-.4.1-.5.2l-1.8 2-1.3-.5v-2.9c0-.4-.3-.7-.7-.7h-5.3c-.4 0-.7.3-.7.7v2.9l-1.1.4-1.8-2c-.1-.1-.3-.2-.5-.2s-.4.1-.5.2l-4 3.6c-.3.3-.3.7-.1 1l2 2.2-.6 1.4h-3c-.4 0-.7.3-.7.7v5.3c0 .4.3.7.7.7H34l.5 1.3-2.3 2.6c-.1.1-.2.3-.2.5s.1.4.2.5l4 3.6c.1.1.3.2.5.2s.4-.1.5-.2l2-2.2 1.3.6v2.9c0 .4.3.7.7.7h5.6c.4 0 .7-.3.7-.7v-2.9l1.6-.7 1.7 2c.1.1.3.2.5.2s.4-.1.5-.2l4-3.6c.1-.1.2-.3.2-.5s-.1-.4-.2-.5l-2.1-2.4.5-1.1h2.9c.4 0 .7-.3.7-.7v-5.4c0 .2 0-.6-.7-.6z"/><path style="stroke:none;stroke-width:1;stroke-dasharray:none;stroke-linecap:butt;stroke-dashoffset:0;stroke-linejoin:miter;stroke-miterlimit:4;fill:#fff;fill-rule:nonzero;opacity:1" vector-effect="non-scaling-stroke" transform="matrix(3.99 0 0 3.99 352.4 514.01)" d="M47.9 28.4c0 2-1.7 3.7-3.7 3.7s-3.7-1.6-3.7-3.7c0-2 1.6-3.7 3.7-3.7 2 0 3.7 1.6 3.7 3.7z"/><text x="50%" y="40%" dominant-baseline="middle" text-anchor="middle" style="fill:#fff;font-family:serif;font-size:76px">FERI WORKSHOP NFT</text></svg>